<?xml version="1.0" standalone="no"?>
<!DOCTYPE svg PUBLIC "-//W3C//DTD SVG 20010904//EN"
 "http://www.w3.org/TR/2001/REC-SVG-20010904/DTD/svg10.dtd">
<svg version="1.0" xmlns="http://www.w3.org/2000/svg"
 width="80.000000pt" height="80.000000pt" viewBox="0 0 80.000000 80.000000"
 preserveAspectRatio="xMidYMid meet">

<g transform="translate(0.000000,80.000000) scale(0.100000,-0.100000)"
fill="#000000" stroke="none">
<path d="M351 763 c-1 -7 8 -35 19 -63 24 -60 23 -58 8 -57 -7 0 -91 -1 -185
-1 l-173 -2 0 -70 c0 -40 4 -70 10 -70 6 0 10 -87 10 -240 l0 -240 360 0 360
0 0 240 c0 153 4 240 10 240 6 0 10 30 10 70 l0 70 -172 2 c-95 0 -179 1 -185
1 -16 -1 -17 -3 7 58 12 28 19 56 18 61 -2 5 -12 -16 -22 -46 -11 -31 -22 -56
-26 -56 -3 0 -16 26 -27 58 -12 31 -22 52 -22 45z m-11 -193 l0 -50 -150 0
-150 0 0 50 0 50 150 0 150 0 0 -50z m100 0 l0 -50 -40 0 -40 0 0 50 0 50 40
0 40 0 0 -50z m320 0 l0 -50 -150 0 -150 0 0 50 0 50 150 0 150 0 0 -50z
m-420 -300 l0 -230 -140 0 -140 0 0 230 0 230 140 0 140 0 0 -230z m100 0 l0
-230 -40 0 -40 0 0 230 0 230 40 0 40 0 0 -230z m300 0 l0 -230 -140 0 -140 0
0 230 0 230 140 0 140 0 0 -230z"/>
<path d="M270 706 c0 -7 82 -57 86 -53 2 2 -14 16 -36 31 -38 25 -50 30 -50
22z"/>
<path d="M477 683 c-20 -14 -35 -28 -33 -30 4 -4 86 46 86 53 0 9 -17 1 -53
-23z"/>
</g>
</svg>
