<svg width="12" height="12" viewBox="0 0 12 12" fill="none" xmlns="http://www.w3.org/2000/svg">
<path d="M3.02303 7.97545L3.51069 7.51244L3.73435 7.79606C2.9366 6.86591 2.52444 5.59691 2.75047 4.24819C3.06291 2.40117 4.60521 0.926217 6.46661 0.700322C9.27865 0.354837 11.6453 2.72008 11.2996 5.53047C11.0736 7.39078 9.59775 8.93218 7.74965 9.24444C6.40013 9.47034 5.13039 9.05841 4.1997 8.26114L4.48541 8.48605L4.0202 8.97204L1.19487 11.7957C0.922307 12.0681 0.476901 12.0681 0.20434 11.7957C-0.068222 11.5233 -0.068222 11.0782 0.20434 10.8058L3.02303 7.97545ZM7.01174 7.97545C8.66705 7.97545 10.0033 6.64001 10.0033 4.98567C10.0033 3.33133 8.66705 1.99589 7.01174 1.99589C5.35642 1.99589 4.0202 3.33133 4.0202 4.98567C4.0202 6.64001 5.35642 7.97545 7.01174 7.97545Z" fill="#6A727B"/>
<path d="M7.33325 3.66669C7.33325 3.48259 7.18401 3.33335 6.99992 3.33335C6.81582 3.33335 6.66658 3.48259 6.66658 3.66669V6.33335C6.66658 6.51745 6.81582 6.66669 6.99992 6.66669C7.18401 6.66669 7.33325 6.51745 7.33325 6.33335V3.66669Z" fill="#6A727B"/>
<path d="M8.33325 5.33335C8.51735 5.33335 8.66659 5.18412 8.66659 5.00002C8.66659 4.81593 8.51735 4.66669 8.33325 4.66669H5.66658C5.48249 4.66669 5.33325 4.81593 5.33325 5.00002C5.33325 5.18412 5.48249 5.33335 5.66658 5.33335H8.33325Z" fill="#6A727B"/>
</svg>
