<svg width="36" height="39" viewBox="0 0 36 39" fill="none" xmlns="http://www.w3.org/2000/svg">
<g filter="url(#filter0_d_1_8168)">
<rect x="5" y="3.50244" width="28" height="28" rx="7" fill="white" shape-rendering="crispEdges"/>
<path fill-rule="evenodd" clip-rule="evenodd" d="M15.1127 11.5455C13.4225 11.8035 12.1055 13.0249 11.7332 14.6797C11.6433 15.0795 11.6448 15.845 11.7362 16.2641C11.8288 16.6881 11.917 16.9332 12.1268 17.3492C12.4344 17.9593 12.8134 18.4042 13.8059 19.3198C14.82 20.2555 15.9278 21.2046 17.6358 22.6012C18.1731 23.0405 18.6502 23.4192 18.6962 23.4428C18.813 23.5027 19.084 23.522 19.2142 23.4798C19.3314 23.4418 19.4502 23.3508 20.4632 22.5226C22.6235 20.7564 24.4183 19.1748 25.081 18.4531C25.4781 18.0206 25.6866 17.7286 25.8893 17.321C26.0789 16.9397 26.1757 16.6649 26.266 16.2518C26.3493 15.8707 26.3567 15.1009 26.2804 14.7421C26.0142 13.4895 25.2278 12.4733 24.1022 11.9274C22.9966 11.3911 21.737 11.3612 20.6123 11.8447C20.1191 12.0567 19.7714 12.2971 19.2803 12.7659L19.0009 13.0325L18.692 12.7381C18.2229 12.291 17.8485 12.0372 17.3434 11.8236C16.6738 11.5406 15.8324 11.4357 15.1127 11.5455ZM16.1899 12.8147C16.6147 12.8862 16.9725 13.0263 17.3213 13.2575C17.416 13.3203 17.7517 13.6211 18.0674 13.926C18.5 14.3438 18.6696 14.4897 18.7561 14.5182C18.9159 14.571 19.1657 14.5642 19.287 14.5038C19.3423 14.4763 19.6328 14.2165 19.9327 13.9264C20.2326 13.6364 20.5639 13.3395 20.6691 13.2667C20.9216 13.0917 21.2407 12.9495 21.5793 12.8611C21.815 12.7996 21.9163 12.789 22.2715 12.789C22.6304 12.789 22.727 12.7993 22.9745 12.8638C24.2971 13.2084 25.1617 14.42 25.0242 15.7361C24.9686 16.2687 24.7547 16.8099 24.4298 17.2402C24.1408 17.6232 23.2916 18.4377 22.1559 19.4217C21.0626 20.3688 19.0475 22.042 19 22.042C18.9861 22.042 18.6479 21.7735 18.2485 21.4452C15.741 19.3849 14.0279 17.8464 13.5793 17.2522C13.0688 16.576 12.8621 15.7517 13.0063 14.9676C13.2685 13.5418 14.7117 12.5659 16.1899 12.8147Z" fill="#1A1A1A"/>
</g>
<defs>
<filter id="filter0_d_1_8168" x="0" y="0.502441" width="38" height="38" filterUnits="userSpaceOnUse" color-interpolation-filters="sRGB">
<feFlood flood-opacity="0" result="BackgroundImageFix"/>
<feColorMatrix in="SourceAlpha" type="matrix" values="0 0 0 0 0 0 0 0 0 0 0 0 0 0 0 0 0 0 127 0" result="hardAlpha"/>
<feOffset dy="2"/>
<feGaussianBlur stdDeviation="2.5"/>
<feComposite in2="hardAlpha" operator="out"/>
<feColorMatrix type="matrix" values="0 0 0 0 0.109804 0 0 0 0 0.176471 0 0 0 0 0.25098 0 0 0 0.1 0"/>
<feBlend mode="normal" in2="BackgroundImageFix" result="effect1_dropShadow_1_8168"/>
<feBlend mode="normal" in="SourceGraphic" in2="effect1_dropShadow_1_8168" result="shape"/>
</filter>
</defs>
</svg>
