<svg width="38" height="38" viewBox="0 0 38 38" fill="none" xmlns="http://www.w3.org/2000/svg">
<g filter="url(#filter0_d_1_10080)">
<rect x="5" y="3" width="28" height="28" rx="7" fill="#4092F1" shape-rendering="crispEdges"/>
<path d="M13 17.641C13 17.2587 13.3115 16.9487 13.6957 16.9487C14.0799 16.9487 14.3913 17.2587 14.3913 17.641V22.3077C14.3913 22.69 14.0799 23 13.6957 23C13.3115 23 13 22.69 13 22.3077V17.641Z" fill="white"/>
<path d="M18.3044 11.6923C18.3044 11.31 18.6158 11 19 11C19.3842 11 19.6957 11.31 19.6957 11.6923V22.3077C19.6957 22.69 19.3842 23 19 23C18.6158 23 18.3044 22.69 18.3044 22.3077V11.6923Z" fill="white"/>
<path d="M23.6087 14.8718C23.6087 14.4895 23.9201 14.1795 24.3043 14.1795C24.6885 14.1795 25 14.4895 25 14.8718V22.3077C25 22.69 24.6885 23 24.3043 23C23.9201 23 23.6087 22.69 23.6087 22.3077V14.8718Z" fill="white"/>
</g>
<defs>
<filter id="filter0_d_1_10080" x="0" y="0" width="38" height="38" filterUnits="userSpaceOnUse" color-interpolation-filters="sRGB">
<feFlood flood-opacity="0" result="BackgroundImageFix"/>
<feColorMatrix in="SourceAlpha" type="matrix" values="0 0 0 0 0 0 0 0 0 0 0 0 0 0 0 0 0 0 127 0" result="hardAlpha"/>
<feOffset dy="2"/>
<feGaussianBlur stdDeviation="2.5"/>
<feComposite in2="hardAlpha" operator="out"/>
<feColorMatrix type="matrix" values="0 0 0 0 0.109804 0 0 0 0 0.176471 0 0 0 0 0.25098 0 0 0 0.1 0"/>
<feBlend mode="normal" in2="BackgroundImageFix" result="effect1_dropShadow_1_10080"/>
<feBlend mode="normal" in="SourceGraphic" in2="effect1_dropShadow_1_10080" result="shape"/>
</filter>
</defs>
</svg>
