<svg width="42" height="42" viewBox="0 0 42 42" fill="none" xmlns="http://www.w3.org/2000/svg">
<g filter="url(#filter0_d_1_10066)">
<rect x="7" y="5" width="28" height="28" rx="7" fill="white" shape-rendering="crispEdges"/>
<path fill-rule="evenodd" clip-rule="evenodd" d="M17.1128 13.0431C15.4225 13.3011 14.1056 14.5224 13.7333 16.1773C13.6433 16.5771 13.6448 17.3426 13.7363 17.7617C13.8289 18.1857 13.9171 18.4307 14.1269 18.8468C14.4344 19.4569 14.8135 19.9017 15.806 20.8174C16.8201 21.753 17.9279 22.7021 19.6359 24.0987C20.1731 24.5381 20.6503 24.9168 20.6963 24.9403C20.813 25.0002 21.084 25.0196 21.2143 24.9774C21.3315 24.9394 21.4503 24.8483 22.4633 24.0201C24.6236 22.254 26.4184 20.6723 27.081 19.9507C27.4782 19.5182 27.6867 19.2262 27.8893 18.8186C28.079 18.4373 28.1758 18.1625 28.2661 17.7494C28.3494 17.3683 28.3568 16.5985 28.2805 16.2397C28.0143 14.987 27.2279 13.9709 26.1023 13.4249C24.9966 12.8886 23.737 12.8588 22.6123 13.3423C22.1191 13.5542 21.7715 13.7947 21.2803 14.2635L21.0009 14.5301L20.692 14.2357C20.223 13.7886 19.8486 13.5347 19.3434 13.3212C18.6739 13.0382 17.8325 12.9333 17.1128 13.0431ZM18.1899 14.3123C18.6147 14.3838 18.9725 14.5238 19.3213 14.7551C19.416 14.8179 19.7518 15.1187 20.0675 15.4236C20.5001 15.8414 20.6697 15.9872 20.7562 16.0158C20.916 16.0685 21.1657 16.0617 21.2871 16.0013C21.3423 15.9738 21.6329 15.714 21.9328 15.424C22.2326 15.134 22.564 14.8371 22.6691 14.7642C22.9217 14.5892 23.2407 14.4471 23.5794 14.3586C23.815 14.2971 23.9163 14.2866 24.2715 14.2866C24.6305 14.2866 24.727 14.2968 24.9746 14.3613C26.2972 14.7059 27.1618 15.9175 27.0243 17.2337C26.9686 17.7663 26.7548 18.3075 26.4299 18.7378C26.1408 19.1207 25.2917 19.9353 24.1559 20.9192C23.0627 21.8664 21.0475 23.5396 21.0001 23.5396C20.9862 23.5396 20.648 23.271 20.2485 22.9428C17.7411 20.8824 16.0279 19.3439 15.5794 18.7498C15.0689 18.0736 14.8621 17.2492 15.0064 16.4651C15.2686 15.0394 16.7118 14.0634 18.1899 14.3123Z" fill="#4092F1"/>
</g>
<defs>
<filter id="filter0_d_1_10066" x="0" y="0" width="42" height="42" filterUnits="userSpaceOnUse" color-interpolation-filters="sRGB">
<feFlood flood-opacity="0" result="BackgroundImageFix"/>
<feColorMatrix in="SourceAlpha" type="matrix" values="0 0 0 0 0 0 0 0 0 0 0 0 0 0 0 0 0 0 127 0" result="hardAlpha"/>
<feOffset dy="2"/>
<feGaussianBlur stdDeviation="3.5"/>
<feComposite in2="hardAlpha" operator="out"/>
<feColorMatrix type="matrix" values="0 0 0 0 0.109804 0 0 0 0 0.176471 0 0 0 0 0.25098 0 0 0 0.12 0"/>
<feBlend mode="normal" in2="BackgroundImageFix" result="effect1_dropShadow_1_10066"/>
<feBlend mode="normal" in="SourceGraphic" in2="effect1_dropShadow_1_10066" result="shape"/>
</filter>
</defs>
</svg>
