<svg width="38" height="38" viewBox="0 0 38 38" fill="none" xmlns="http://www.w3.org/2000/svg">
<g filter="url(#filter0_d_1_10076)">
<rect x="5" y="3" width="28" height="28" rx="7" fill="#4092F1" shape-rendering="crispEdges"/>
<path fill-rule="evenodd" clip-rule="evenodd" d="M15.1128 11.0431C13.4225 11.3011 12.1056 12.5224 11.7333 14.1773C11.6433 14.5771 11.6448 15.3426 11.7363 15.7617C11.8289 16.1857 11.9171 16.4307 12.1269 16.8468C12.4344 17.4569 12.8135 17.9017 13.806 18.8174C14.8201 19.753 15.9279 20.7021 17.6359 22.0987C18.1731 22.5381 18.6503 22.9168 18.6963 22.9403C18.813 23.0002 19.084 23.0196 19.2143 22.9774C19.3315 22.9394 19.4503 22.8483 20.4633 22.0201C22.6236 20.254 24.4184 18.6723 25.081 17.9507C25.4782 17.5182 25.6867 17.2262 25.8893 16.8186C26.079 16.4373 26.1758 16.1625 26.2661 15.7494C26.3494 15.3683 26.3568 14.5985 26.2805 14.2397C26.0143 12.987 25.2279 11.9709 24.1023 11.4249C22.9966 10.8886 21.737 10.8588 20.6123 11.3423C20.1191 11.5542 19.7715 11.7947 19.2803 12.2635L19.0009 12.5301L18.692 12.2357C18.223 11.7886 17.8486 11.5347 17.3434 11.3212C16.6739 11.0382 15.8325 10.9333 15.1128 11.0431ZM16.1899 12.3123C16.6147 12.3838 16.9725 12.5238 17.3213 12.7551C17.416 12.8179 17.7518 13.1187 18.0675 13.4236C18.5001 13.8414 18.6697 13.9872 18.7562 14.0158C18.916 14.0685 19.1657 14.0617 19.2871 14.0013C19.3423 13.9738 19.6329 13.714 19.9328 13.424C20.2326 13.134 20.564 12.8371 20.6691 12.7642C20.9217 12.5892 21.2407 12.4471 21.5794 12.3586C21.815 12.2971 21.9163 12.2866 22.2715 12.2866C22.6305 12.2866 22.727 12.2968 22.9746 12.3613C24.2972 12.7059 25.1618 13.9175 25.0243 15.2337C24.9686 15.7663 24.7548 16.3075 24.4299 16.7378C24.1408 17.1207 23.2917 17.9353 22.1559 18.9192C21.0627 19.8664 19.0475 21.5396 19.0001 21.5396C18.9862 21.5396 18.648 21.271 18.2485 20.9428C15.7411 18.8824 14.0279 17.3439 13.5794 16.7498C13.0689 16.0736 12.8621 15.2492 13.0064 14.4651C13.2686 13.0394 14.7118 12.0634 16.1899 12.3123Z" fill="white"/>
</g>
<defs>
<filter id="filter0_d_1_10076" x="0" y="0" width="38" height="38" filterUnits="userSpaceOnUse" color-interpolation-filters="sRGB">
<feFlood flood-opacity="0" result="BackgroundImageFix"/>
<feColorMatrix in="SourceAlpha" type="matrix" values="0 0 0 0 0 0 0 0 0 0 0 0 0 0 0 0 0 0 127 0" result="hardAlpha"/>
<feOffset dy="2"/>
<feGaussianBlur stdDeviation="2.5"/>
<feComposite in2="hardAlpha" operator="out"/>
<feColorMatrix type="matrix" values="0 0 0 0 0.109804 0 0 0 0 0.176471 0 0 0 0 0.25098 0 0 0 0.1 0"/>
<feBlend mode="normal" in2="BackgroundImageFix" result="effect1_dropShadow_1_10076"/>
<feBlend mode="normal" in="SourceGraphic" in2="effect1_dropShadow_1_10076" result="shape"/>
</filter>
</defs>
</svg>
