<svg width="38" height="39" viewBox="0 0 38 39" fill="none" xmlns="http://www.w3.org/2000/svg">
<g filter="url(#filter0_d_1_8328)">
<rect x="5" y="3.50244" width="28" height="28" rx="7" fill="white" shape-rendering="crispEdges"/>
<path d="M13 18.1435C13 17.7611 13.3115 17.4511 13.6957 17.4511C14.0799 17.4511 14.3913 17.7611 14.3913 18.1435V22.8101C14.3913 23.1925 14.0799 23.5024 13.6957 23.5024C13.3115 23.5024 13 23.1925 13 22.8101V18.1435Z" fill="#1A1A1A"/>
<path d="M18.3044 12.1947C18.3044 11.8124 18.6158 11.5024 19 11.5024C19.3842 11.5024 19.6957 11.8124 19.6957 12.1947V22.8101C19.6957 23.1925 19.3842 23.5024 19 23.5024C18.6158 23.5024 18.3044 23.1925 18.3044 22.8101V12.1947Z" fill="#1A1A1A"/>
<path d="M23.6087 15.3742C23.6087 14.9919 23.9201 14.6819 24.3043 14.6819C24.6885 14.6819 25 14.9919 25 15.3742V22.8101C25 23.1925 24.6885 23.5024 24.3043 23.5024C23.9201 23.5024 23.6087 23.1925 23.6087 22.8101V15.3742Z" fill="#1A1A1A"/>
</g>
<defs>
<filter id="filter0_d_1_8328" x="0" y="0.502441" width="38" height="38" filterUnits="userSpaceOnUse" color-interpolation-filters="sRGB">
<feFlood flood-opacity="0" result="BackgroundImageFix"/>
<feColorMatrix in="SourceAlpha" type="matrix" values="0 0 0 0 0 0 0 0 0 0 0 0 0 0 0 0 0 0 127 0" result="hardAlpha"/>
<feOffset dy="2"/>
<feGaussianBlur stdDeviation="2.5"/>
<feComposite in2="hardAlpha" operator="out"/>
<feColorMatrix type="matrix" values="0 0 0 0 0.109804 0 0 0 0 0.176471 0 0 0 0 0.25098 0 0 0 0.1 0"/>
<feBlend mode="normal" in2="BackgroundImageFix" result="effect1_dropShadow_1_8328"/>
<feBlend mode="normal" in="SourceGraphic" in2="effect1_dropShadow_1_8328" result="shape"/>
</filter>
</defs>
</svg>
