<svg width="100" height="100" viewBox="0 0 100 100" fill="none" xmlns="http://www.w3.org/2000/svg">
<g clip-path="url(#clip0_1_10433)">
<mask id="mask0_1_10433" style="mask-type:alpha" maskUnits="userSpaceOnUse" x="0" y="0" width="100" height="100">
<circle cx="50" cy="50" r="50" fill="#C4C4C4"/>
</mask>
<g mask="url(#mask0_1_10433)">
<circle cx="50" cy="50" r="50" fill="#E2EEFC"/>
<ellipse cx="64.9414" cy="50" rx="52.0508" ry="48.2422" fill="#EDF5FE"/>
</g>
<path fill-rule="evenodd" clip-rule="evenodd" d="M30.1081 34.3981C26.3022 35.4229 23.4282 38.9684 23.4181 42.6507C23.414 44.1278 24.7265 44.9337 25.7655 44.0923C26.0921 43.8278 26.2493 43.4149 26.3761 42.4876C26.6872 40.2122 27.8517 38.5425 29.7716 37.6182C31.1257 36.9663 33.271 36.9479 34.6462 37.5763C36.6226 38.4794 37.9312 40.3194 38.1835 42.5505C38.3216 43.7694 38.8667 44.4485 39.7071 44.4485C40.8913 44.4485 41.3784 43.2913 40.9935 41.3923C39.9728 36.3577 34.9101 33.1048 30.1081 34.3981ZM65.4079 34.4513C63.8001 34.8716 62.6437 35.5497 61.3796 36.8139C59.8858 38.3077 58.7673 40.9155 58.7673 42.9046C58.7673 43.6204 59.5341 44.4485 60.197 44.4485C61.0882 44.4485 61.6323 43.7932 61.7729 42.5505C62.0253 40.3194 63.3339 38.4794 65.3103 37.5763C66.6649 36.9573 68.8325 36.9669 70.1415 37.5979C72.0823 38.5333 73.2706 40.2229 73.5804 42.4876C73.7071 43.4149 73.8644 43.8278 74.1909 44.0923C75.23 44.9337 76.5425 44.1278 76.5384 42.6507C76.5306 39.8136 74.4614 36.4929 71.889 35.1893C69.7249 34.0927 67.6735 33.8591 65.4079 34.4513ZM10.8647 49.0872C10.4706 49.5264 8.32744 55.6999 8.31846 56.4223C8.30381 57.5876 9.91123 58.2596 10.7062 57.4206C11.163 56.9382 13.2595 50.8718 13.2595 50.0317C13.2595 49.6598 13.1099 49.2565 12.9022 49.0686C12.4284 48.6397 11.2567 48.6505 10.8647 49.0872ZM17.6925 49.0934C17.3823 49.4364 15.0173 55.9559 15.0173 56.4684C15.0173 56.613 15.2231 56.9708 15.4747 57.2632C16.0001 57.8741 16.9931 57.9862 17.4886 57.4905C17.8628 57.1165 20.0954 50.7938 20.0954 50.1085C20.0954 49.8364 19.9585 49.4182 19.7913 49.1796C19.404 48.6263 18.1612 48.5755 17.6925 49.0934ZM82.4491 49.087C82.0144 49.5218 79.861 55.7014 79.861 56.5145C79.861 57.7268 81.4837 58.2598 82.2845 57.3106C82.5093 57.0442 83.2198 55.2774 83.8638 53.3845L85.0345 49.9427L84.6255 49.3929C84.1069 48.6954 82.9968 48.5393 82.4491 49.087ZM89.1991 49.0872C88.7755 49.5817 86.697 55.6964 86.697 56.4479C86.697 57.6399 88.2089 58.268 89.038 57.4206C89.4622 56.987 91.6278 50.8612 91.638 50.0663C91.6419 49.7723 91.4849 49.3548 91.2892 49.1386C90.8329 48.6345 89.6126 48.6044 89.1991 49.0872ZM31.1218 58.5999C30.4749 59.2466 30.5132 59.6427 31.4056 61.547C32.4304 63.7341 33.3999 65.1595 35.0368 66.886C36.7663 68.7104 38.2181 69.8282 40.289 70.9298C50.6831 76.4591 63.3649 72.197 68.3833 61.4878C69.2636 59.6095 69.2429 58.8577 68.296 58.3262C67.3263 57.7819 66.7989 58.1823 65.7009 60.297C64.4915 62.6259 63.9788 63.3932 62.6929 64.8003C60.6749 67.0083 57.7446 68.7929 54.5267 69.7737C52.9919 70.2417 52.5003 70.297 49.8806 70.297C47.2612 70.297 46.7692 70.2417 45.2356 69.7741C39.8903 68.1448 35.856 64.5684 33.6702 59.5221C33.048 58.0856 32.011 57.7104 31.1218 58.5999Z" fill="#4092F1"/>
</g>
<defs>
<clipPath id="clip0_1_10433">
<rect width="100" height="100" fill="white"/>
</clipPath>
</defs>
</svg>
